<svg width="32" height="32" viewBox="0 0 32 32" fill="none" xmlns="http://www.w3.org/2000/svg">
<path d="M0 16C0 7.16344 7.16344 0 16 0C24.8366 0 32 7.16344 32 16C32 24.8366 24.8366 32 16 32C7.16344 32 0 24.8366 0 16Z" fill="#00838C"/>
<path d="M15.7338 11.1082C15.9379 11.526 16.04 11.9491 16.04 12.3774C16.04 12.7952 15.9326 13.213 15.7177 13.6309C15.5028 14.0383 15.1536 14.4039 14.6701 14.7277C14.1866 15.0411 13.5688 15.1978 12.8166 15.1978H12.7199C12.6555 15.2083 12.591 15.2135 12.5265 15.2135H6.04759C5.75749 15.203 5.51037 15.1038 5.30622 14.9158C5.11282 14.7173 5.01074 14.477 5 14.195V7.0185C5.01074 6.73645 5.11282 6.50141 5.30622 6.31338C5.51037 6.11491 5.75749 6.01045 6.04759 6H11.5918C11.6562 6 11.7207 6.00522 11.7852 6.01567H11.8819C12.634 6.03656 13.2518 6.2037 13.7353 6.51708C14.2188 6.83047 14.568 7.19086 14.7829 7.59826C14.9978 7.99521 15.1052 8.39739 15.1052 8.80478C15.1052 9.22263 15.0032 9.63003 14.799 10.027C14.7883 10.0479 14.7775 10.0635 14.7668 10.074C15.2073 10.3769 15.5296 10.7216 15.7338 11.1082ZM12.9133 13.1138C13.1175 13.1243 13.284 13.0877 13.413 13.0041C13.5526 12.9206 13.6547 12.8265 13.7192 12.7221C13.7836 12.6072 13.8159 12.4923 13.8159 12.3774C13.8159 12.3042 13.7836 12.205 13.7192 12.0796C13.6547 11.9438 13.5526 11.8342 13.413 11.7506C13.284 11.667 13.1175 11.62 12.9133 11.6096H7.17577V12.6907C7.17577 12.9728 7.32619 13.1138 7.62704 13.1138H12.9133ZM12.4943 9.36888C12.6232 9.29575 12.7199 9.21218 12.7844 9.11817C12.8489 9.01371 12.8811 8.90925 12.8811 8.80478C12.8811 8.70032 12.8489 8.60109 12.7844 8.50707C12.7199 8.40261 12.6179 8.31382 12.4782 8.24069C12.3493 8.15713 12.1827 8.11012 11.9786 8.09967H7.62704C7.32619 8.09967 7.17577 8.24069 7.17577 8.52274V9.5099H11.9786C12.1827 9.49945 12.3546 9.45245 12.4943 9.36888Z" fill="white"/>
<path d="M20.9186 12.9203C20.9186 12.6389 21.0172 12.4027 21.2145 12.2117C21.4221 12.0107 21.6713 11.9102 21.962 11.9102H24.3446L23.9397 10.7945C23.7736 10.3824 23.6075 9.99541 23.4414 9.63356C23.2857 9.26166 23.104 8.92494 22.8963 8.6234C22.7095 8.32186 22.4966 8.16104 22.2579 8.14093C22.0087 8.16104 21.7855 8.32186 21.5882 8.6234C21.391 8.92494 21.2093 9.26166 21.0432 9.63356C20.8875 9.99541 20.7265 10.3824 20.5604 10.7945L19.081 14.7145C18.9772 14.9256 18.8422 15.1015 18.6761 15.2422C18.5204 15.3729 18.2816 15.4382 17.9598 15.4382C17.6587 15.4382 17.4095 15.3377 17.2123 15.1367C17.0254 14.9356 16.9424 14.6944 16.9631 14.413C16.9735 14.2823 17.0046 14.1617 17.0566 14.0511L18.7696 9.76925C19.2471 8.6435 19.7247 7.73386 20.2023 7.04031C20.6694 6.35682 21.3546 6.01005 22.2579 6C23.1507 6.01005 23.8307 6.35682 24.2979 7.04031C24.7755 7.71375 25.253 8.6234 25.7306 9.76925L27.4436 14.0511C27.4955 14.1617 27.5267 14.2823 27.537 14.413C27.5578 14.6944 27.4696 14.9356 27.2723 15.1367C27.0854 15.3377 26.8415 15.4382 26.5404 15.4382C26.1978 15.4382 25.9434 15.3729 25.7773 15.2422C25.6216 15.1015 25.4918 14.9256 25.388 14.7145L25.0921 13.9305H21.962C21.6713 13.9305 21.4273 13.83 21.2301 13.629C21.0224 13.438 20.9186 13.2018 20.9186 12.9203Z" fill="white"/>
<path d="M25.021 16.7865C25.5175 16.7969 25.9604 16.9635 26.3498 17.2862C26.7393 17.609 27.0508 17.9942 27.2844 18.4418C27.5278 18.8895 27.7079 19.3632 27.8248 19.8629C27.9416 20.3626 28 20.8727 28 21.3933C28 22.0804 27.8978 22.7571 27.6933 23.4233C27.4986 24.0792 27.1725 24.6622 26.7149 25.1723C26.2671 25.6825 25.7024 25.9584 25.021 26H19.9244C19.243 25.9688 18.6734 25.6981 18.2159 25.188C17.7583 24.6778 17.4322 24.0896 17.2375 23.4233C17.0525 22.7571 16.96 22.0804 16.96 21.3933C16.96 20.7062 17.0574 20.0347 17.2521 19.3788C17.4468 18.7125 17.768 18.1243 18.2159 17.6142C18.6734 17.0936 19.243 16.8178 19.9244 16.7865H25.021ZM24.5244 23.9074C24.8944 23.8866 25.2011 23.7409 25.4444 23.4702C25.6976 23.1891 25.8777 22.8664 25.9848 22.502C26.0919 22.1376 26.1454 21.768 26.1454 21.3933C26.1454 21.0185 26.087 20.6541 25.9702 20.3001C25.8631 19.9358 25.6878 19.613 25.4444 19.3319C25.2011 19.0508 24.8944 18.8999 24.5244 18.8791H20.3771C20.0072 18.8999 19.7005 19.0508 19.4571 19.3319C19.2138 19.613 19.0336 19.9358 18.9168 20.3001C18.8097 20.6541 18.7562 21.0185 18.7562 21.3933C18.7562 21.768 18.8097 22.1376 18.9168 22.502C19.0239 22.8664 19.1992 23.1891 19.4425 23.4702C19.6957 23.7409 20.0072 23.8866 20.3771 23.9074H24.5244Z" fill="white"/>
<path d="M7.11105 25.0085C7.0485 25.6186 6.70448 25.9492 6.07898 26C5.78708 26 5.53167 25.9085 5.31275 25.7254C5.10425 25.5322 5 25.2932 5 25.0085V17.778C5.01042 17.4933 5.11989 17.2594 5.32839 17.0763C5.53688 16.8831 5.78708 16.7865 6.07898 16.7865H12.631C12.6936 16.7865 12.7561 16.7916 12.8187 16.8018H12.9125C13.6423 16.8221 14.2417 16.9848 14.7108 17.2899C15.1799 17.595 15.5188 17.9458 15.7273 18.3424C15.9358 18.7289 16.04 19.1204 16.04 19.517C16.04 19.9238 15.9358 20.3255 15.7273 20.7221C15.5292 21.1085 15.1904 21.4543 14.7108 21.7594C14.2417 22.0644 13.6423 22.2271 12.9125 22.2475H10.1603C10.2437 22.756 10.4158 23.1322 10.6764 23.3763C10.9266 23.6204 11.2445 23.7424 11.6303 23.7424H15.0079C15.2998 23.7526 15.5396 23.8593 15.7273 24.0627C15.9253 24.2661 16.0244 24.5102 16.0244 24.7949C16.0139 25.0695 15.9097 25.3034 15.7116 25.4966C15.524 25.6797 15.2894 25.7763 15.0079 25.7864H11.3488C10.5773 25.7966 9.87887 25.5017 9.25337 24.9017C8.62788 24.3017 8.24737 23.5899 8.11184 22.7661C7.92419 21.8509 7.83037 21.3373 7.83037 21.2255C7.83037 20.9407 7.92941 20.7017 8.12748 20.5085C8.33598 20.3051 8.58618 20.2034 8.87807 20.2034H13.0063C13.2044 20.1933 13.366 20.1526 13.4911 20.0814C13.6266 20.0001 13.7257 19.9136 13.7882 19.8221C13.8508 19.7204 13.882 19.6187 13.882 19.517C13.882 19.4153 13.8508 19.3187 13.7882 19.2272C13.7257 19.1255 13.6266 19.039 13.4911 18.9679C13.366 18.8865 13.2044 18.8407 13.0063 18.8306H7.51762C7.24657 18.8407 7.11105 18.9729 7.11105 19.2272V25.0085Z" fill="white"/>
</svg>
