<svg width="926" height="339" viewBox="0 0 926 339" fill="none" xmlns="http://www.w3.org/2000/svg">
<path d="M117.725 23.1085H209.671L114.222 305.916C113.241 308.822 111.373 311.347 108.881 313.136C106.39 314.925 103.4 315.887 100.333 315.888H28.7759C26.4521 315.888 24.1615 315.335 22.0938 314.275C20.026 313.214 18.2406 311.676 16.8851 309.789C15.5296 307.901 14.643 305.718 14.2987 303.419C13.9544 301.121 14.1623 298.774 14.9052 296.572L103.833 33.0808C104.813 30.1735 106.681 27.6471 109.173 25.8575C111.666 24.0679 114.656 23.1087 117.725 23.1085Z" fill="url(#paint0_linear_672_898)"/>
<path d="M251.337 212.797H105.532C104.176 212.795 102.851 213.202 101.73 213.964C100.609 214.726 99.7438 215.808 99.2464 217.069C98.7491 218.33 98.6431 219.712 98.9422 221.034C99.2413 222.356 99.9316 223.558 100.923 224.482L194.614 311.93C197.342 314.474 200.934 315.889 204.664 315.888H287.225L251.337 212.797Z" fill="#0078D4"/>
<path d="M117.725 23.1085C114.623 23.0966 111.599 24.0768 109.094 25.9058C106.589 27.7349 104.734 30.317 103.801 33.275L15.015 296.332C14.2222 298.542 13.9733 300.91 14.2893 303.237C14.6054 305.563 15.4772 307.779 16.8309 309.698C18.1846 311.616 19.9804 313.18 22.0664 314.258C24.1524 315.335 26.4673 315.894 28.8151 315.888H102.219C104.953 315.4 107.508 314.194 109.624 312.395C111.739 310.596 113.34 308.267 114.261 305.647L131.966 253.466L195.211 312.456C197.861 314.648 201.186 315.86 204.625 315.888H286.879L250.804 212.797L145.639 212.821L210.004 23.1085H117.725Z" fill="url(#paint1_linear_672_898)"/>
<path d="M235.163 33.0665C234.184 30.164 232.319 27.6418 229.831 25.8553C227.342 24.0688 224.356 23.108 221.293 23.1084H118.819C121.883 23.1086 124.868 24.0695 127.357 25.8559C129.845 27.6424 131.71 30.1642 132.69 33.0665L221.621 296.568C222.364 298.771 222.573 301.119 222.229 303.417C221.885 305.716 220.999 307.9 219.643 309.788C218.288 311.677 216.502 313.215 214.434 314.276C212.366 315.338 210.075 315.891 207.75 315.891H310.227C312.551 315.891 314.842 315.337 316.91 314.275C318.977 313.214 320.762 311.675 322.117 309.787C323.472 307.899 324.359 305.715 324.702 303.417C325.046 301.118 324.838 298.771 324.094 296.568L235.163 33.0665Z" fill="url(#paint2_linear_672_898)"/>
<path d="M492.629 51.0508V146.237H476.147V71.5424H475.927L446.479 146.237H435.491L405.383 71.5424H405.164V146.237H390V51.0508H413.734L440.985 121.559H441.424L470.213 51.0508H492.629ZM506.254 58.322C506.254 55.678 507.133 53.4746 509.111 51.7119C511.089 49.9492 513.287 49.0678 515.924 49.0678C518.781 49.0678 521.198 49.9492 522.956 51.7119C524.714 53.4746 525.813 55.678 525.813 58.322C525.813 60.9661 524.934 63.1695 522.956 64.9322C520.978 66.6949 518.781 67.5763 515.924 67.5763C513.067 67.5763 510.869 66.6949 509.111 64.9322C507.353 62.9492 506.254 60.7458 506.254 58.322ZM524.055 77.9322V146.237H508.012V77.9322H524.055ZM572.622 134.559C575.04 134.559 577.677 134.119 580.534 132.797C583.391 131.695 586.028 130.153 588.445 128.39V143.373C585.808 144.915 582.951 146.017 579.655 146.678C576.358 147.339 572.842 147.78 568.886 147.78C558.777 147.78 550.646 144.695 544.493 138.305C538.12 131.915 535.043 123.763 535.043 114.068C535.043 103.051 538.339 94.017 544.713 86.9661C551.086 79.9153 560.096 76.3898 571.963 76.3898C575.04 76.3898 578.116 76.8305 580.973 77.4915C584.05 78.1525 586.467 79.2542 588.225 80.1356V95.5593C585.808 93.7966 583.171 92.2542 580.754 91.3729C578.116 90.4915 575.479 89.8305 572.842 89.8305C566.469 89.8305 561.414 91.8136 557.459 96C553.503 100.186 551.745 105.695 551.745 112.746C551.745 119.576 553.723 125.085 557.459 128.831C561.195 132.576 566.249 134.559 572.622 134.559ZM633.936 76.8305C635.255 76.8305 636.353 76.8305 637.452 77.0509C638.551 77.2712 639.43 77.4915 640.089 77.7119V94.017C639.21 93.3559 638.112 92.6949 636.353 92.2542C634.595 91.8136 632.837 91.3729 630.42 91.3729C626.464 91.3729 623.168 93.1356 620.531 96.4407C617.893 99.7458 616.355 104.814 616.355 111.864V146.237H600.312V77.9322H616.355V88.7288H616.575C618.113 84.9831 620.311 82.1186 623.168 79.9153C626.244 77.9322 629.761 76.8305 633.936 76.8305ZM640.968 113.186C640.968 101.949 644.265 92.9153 650.418 86.3051C656.791 79.6949 665.582 76.3898 676.79 76.3898C687.338 76.3898 695.689 79.4746 701.623 85.8644C707.556 92.2542 710.633 100.847 710.633 111.644C710.633 122.661 707.337 131.475 701.183 138.085C694.81 144.695 686.239 148 675.251 148C664.703 148 656.352 144.915 650.198 138.746C644.045 132.356 640.968 123.763 640.968 113.186ZM657.67 112.525C657.67 119.576 659.209 125.085 662.505 128.831C665.802 132.576 670.417 134.559 676.35 134.559C682.064 134.559 686.679 132.797 689.756 128.831C692.832 125.085 694.371 119.576 694.371 112.085C694.371 104.814 692.832 99.3051 689.756 95.339C686.679 91.5932 682.064 89.6102 676.57 89.6102C670.636 89.6102 666.241 91.5932 662.945 95.5593C659.209 99.7458 657.67 105.254 657.67 112.525ZM734.587 96C734.587 98.2034 735.246 100.186 736.785 101.508C738.323 102.831 741.4 104.373 746.454 106.356C752.827 109 757.442 111.864 759.86 114.949C762.497 118.254 763.815 122 763.815 126.627C763.815 133.017 761.398 138.085 756.344 142.051C751.509 146.017 744.696 147.78 736.345 147.78C733.488 147.78 730.412 147.339 726.895 146.678C723.379 146.017 720.522 145.136 718.105 144.034V128.169C720.962 130.153 724.258 131.915 727.555 133.017C730.851 134.119 733.928 134.78 736.785 134.78C740.301 134.78 743.158 134.339 744.696 133.237C746.454 132.136 747.333 130.593 747.333 128.169C747.333 125.966 746.454 124.203 744.696 122.441C742.938 120.898 739.422 119.136 734.587 117.153C728.654 114.729 724.478 111.864 722.061 108.78C719.643 105.695 718.325 101.729 718.325 96.8814C718.325 90.7119 720.742 85.6441 725.577 81.678C730.412 77.7119 736.785 75.7288 744.476 75.7288C746.894 75.7288 749.531 75.9492 752.388 76.6102C755.245 77.2712 757.882 77.9322 759.86 78.5932V94.2373C757.662 92.9153 755.245 91.5932 752.388 90.4915C749.531 89.3898 746.674 88.9492 744.037 88.9492C740.96 88.9492 738.543 89.6102 737.005 90.7119C735.466 92.2542 734.587 93.7966 734.587 96ZM770.628 113.186C770.628 101.949 773.925 92.9153 780.078 86.3051C786.451 79.6949 795.241 76.3898 806.449 76.3898C816.998 76.3898 825.349 79.4746 831.282 85.8644C837.216 92.2542 840.293 100.847 840.293 111.644C840.293 122.661 836.996 131.475 830.843 138.085C824.47 144.695 815.899 148 804.911 148C794.362 148 786.011 144.915 779.858 138.746C773.925 132.356 770.628 123.763 770.628 113.186ZM787.33 112.525C787.33 119.576 788.868 125.085 792.165 128.831C795.461 132.576 800.076 134.559 806.01 134.559C811.724 134.559 816.339 132.797 819.415 128.831C822.492 125.085 824.03 119.576 824.03 112.085C824.03 104.814 822.492 99.3051 819.415 95.339C816.339 91.5932 811.724 89.6102 806.23 89.6102C800.296 89.6102 795.901 91.5932 792.604 95.5593C789.088 99.7458 787.33 105.254 787.33 112.525ZM893.695 91.1525H869.741V146.237H853.478V91.1525H842.051V77.9322H853.478V68.4576C853.478 61.4068 855.896 55.4576 860.511 50.8305C865.126 46.2034 871.059 44 878.312 44C880.289 44 882.048 44.2203 883.586 44.2203C885.124 44.2203 886.443 44.661 887.542 45.1017V58.9831C887.102 58.7627 886.003 58.322 884.685 57.8814C883.366 57.4407 881.828 57.2203 880.07 57.2203C876.773 57.2203 874.136 58.322 872.378 60.3051C870.62 62.2881 869.741 65.5932 869.741 69.5593V77.7119H893.695V62.2881L909.738 57.4407V77.7119H926V90.9322H909.738V122.881C909.738 127.068 910.617 129.932 911.935 131.695C913.474 133.458 915.891 134.339 919.187 134.339C920.066 134.339 921.165 134.119 922.484 133.678C923.802 133.237 924.901 132.797 925.78 132.136V145.356C924.681 146.017 923.143 146.458 920.726 146.898C918.308 147.339 916.111 147.559 913.693 147.559C906.881 147.559 901.826 145.797 898.53 142.271C895.233 138.746 893.475 133.237 893.475 125.966L893.695 91.1525Z" fill="#0078D4"/>
<path d="M576.258 289.033C563.704 288.228 556.404 281.08 554.469 267.7C553.954 264.141 553.952 264.049 553.9 240.943L553.849 218.58H559.404H564.96L565.004 240.21C565.043 259.705 565.068 261.991 565.254 263.363C566.011 268.928 567.517 272.671 570.08 275.358C572.132 277.508 574.534 278.767 577.859 279.435C579.428 279.75 583.891 279.751 585.321 279.436C588.692 278.694 591.394 277.227 593.777 274.845C596.494 272.129 598.503 268.277 599.476 263.92L599.804 262.451L599.84 240.638L599.877 218.824H605.549H611.221V253.116V287.407H605.607H599.993V281.967C599.993 278.27 599.953 276.54 599.867 276.568C599.798 276.591 599.509 277.032 599.226 277.548C597.292 281.076 594.069 284.303 590.537 286.246C586.304 288.576 582.058 289.404 576.258 289.033ZM703.673 288.977C699.242 288.644 694.576 287.121 690.762 284.762C682.725 279.79 677.969 271.594 676.576 260.316C676.094 256.413 676.036 251.17 676.438 247.854C677.337 240.444 680.249 233.17 684.395 227.976C685.458 226.645 687.869 224.234 689.201 223.171C692.796 220.301 697.001 218.293 701.465 217.317C704.066 216.748 708.647 216.48 711.411 216.737C718.354 217.38 724.717 220.649 729.041 225.794C733.435 231.021 735.85 238.325 736.159 247.319C736.207 248.728 736.219 251.2 736.185 252.81L736.123 255.739L711.808 255.77L687.492 255.801V256.886C687.492 260.189 688.295 263.951 689.684 267.152C690.881 269.913 692.942 272.927 694.629 274.386C698.089 277.377 702.323 279.167 706.957 279.598C708.675 279.757 713.053 279.589 715.011 279.288C720.597 278.43 725.907 276.239 730.196 273.024C730.701 272.645 731.183 272.292 731.269 272.238C731.394 272.16 731.424 273.148 731.421 277.303L731.417 282.465L730.268 283.175C725.416 286.176 719.858 288.103 713.974 288.824C712.218 289.039 705.773 289.135 703.673 288.977ZM724.835 245.44C724.835 239.907 722.503 233.761 719.203 230.596C716.849 228.337 714.002 226.956 710.618 226.432C709.017 226.184 705.642 226.28 703.954 226.621C700.386 227.342 697.434 228.911 694.86 231.454C692.151 234.132 690.12 237.383 688.842 241.088C688.383 242.42 687.846 244.607 687.679 245.824L687.599 246.404H706.217H724.835V245.44ZM395.001 287.255C395.029 287.171 403.286 265.479 413.35 239.051L431.647 191.001L437.526 191L443.404 191L443.892 192.251C445.383 196.073 480.522 287.303 480.522 287.35C480.522 287.382 477.707 287.407 474.267 287.406L468.013 287.405L462.949 273.921L457.884 260.438L437.492 260.437L417.101 260.437L416.923 260.895C416.826 261.147 414.662 267.214 412.115 274.378L407.484 287.403L401.217 287.405C396.256 287.407 394.96 287.375 395.001 287.255ZM454.162 250.148C454.162 250.126 450.754 240.887 446.588 229.615C438.795 208.529 438.359 207.26 437.744 203.875C437.455 202.287 437.309 202.243 437.138 203.691C437.015 204.727 436.484 207.044 436.074 208.329C435.871 208.966 432.362 218.598 428.276 229.733C424.19 240.868 420.847 250.025 420.847 250.082C420.847 250.14 428.343 250.187 437.504 250.187C446.666 250.187 454.162 250.169 454.162 250.148ZM484.305 285.651V283.895L504.621 255.966L524.937 228.037L506.543 227.976L488.149 227.915L488.117 223.248L488.085 218.58H514.69H541.295V220.156V221.733L520.976 249.814C509.801 265.259 500.657 277.921 500.657 277.953C500.657 277.985 509.691 278.011 520.732 278.011H540.807V282.709V287.407H512.556H484.305V285.651ZM633.39 287.326C633.345 287.281 633.309 271.795 633.309 252.912V218.58H638.861H644.414V225.658C644.414 229.551 644.461 232.736 644.519 232.736C644.577 232.736 644.847 232.098 645.12 231.32C646.368 227.751 648.533 224.416 651.322 221.766C653.835 219.378 656.707 217.95 660.095 217.404C661.047 217.25 661.853 217.221 663.757 217.271C666.147 217.333 667.397 217.508 668.851 217.983L669.309 218.133V223.896V229.66L667.997 229.003C665.68 227.843 663.393 227.384 660.645 227.527C658.856 227.62 657.682 227.849 656.251 228.386C653.309 229.491 650.922 231.44 649.254 234.101C646.84 237.953 645.118 242.904 644.61 247.455C644.519 248.271 644.465 254.922 644.443 268.034L644.412 287.407H638.942C635.933 287.407 633.435 287.371 633.39 287.326Z" fill="#0078D4"/>
<defs>
<linearGradient id="paint0_linear_672_898" x1="151.236" y1="44.8045" x2="55.7476" y2="326.902" gradientUnits="userSpaceOnUse">
<stop stop-color="#114A8B"/>
<stop offset="1" stop-color="#0669BC"/>
</linearGradient>
<linearGradient id="paint1_linear_672_898" x1="181.065" y1="176.269" x2="158.977" y2="183.738" gradientUnits="userSpaceOnUse">
<stop stop-opacity="0.3"/>
<stop offset="0.071" stop-opacity="0.2"/>
<stop offset="0.321" stop-opacity="0.1"/>
<stop offset="0.623" stop-opacity="0.05"/>
<stop offset="1" stop-opacity="0"/>
</linearGradient>
<linearGradient id="paint2_linear_672_898" x1="168.917" y1="36.5766" x2="273.735" y2="315.831" gradientUnits="userSpaceOnUse">
<stop stop-color="#3CCBF4"/>
<stop offset="1" stop-color="#2892DF"/>
</linearGradient>
</defs>
</svg>
