<svg width="24" height="24" viewBox="0 0 24 24" fill="none" xmlns="http://www.w3.org/2000/svg">
<path d="M3.99964 16.5C3.99964 17.2956 4.31572 18.0587 4.87832 18.6213C5.44093 19.1839 6.204 19.5 6.99964 19.5C6.99964 20.163 7.26304 20.7989 7.73188 21.2678C8.20072 21.7366 8.8366 22 9.49964 22C10.1627 22 10.7986 21.7366 11.2674 21.2678C11.7363 20.7989 11.9996 20.163 11.9996 19.5C11.9996 20.163 12.263 20.7989 12.7319 21.2678C13.2007 21.7366 13.8366 22 14.4996 22C15.1627 22 15.7986 21.7366 16.2674 21.2678C16.7363 20.7989 16.9996 20.163 16.9996 19.5C17.5315 19.5 18.0538 19.3587 18.513 19.0904C18.9723 18.8222 19.352 18.4367 19.6132 17.9734C19.8744 17.5101 20.0077 16.9857 19.9995 16.4539C19.9914 15.9221 19.842 15.402 19.5666 14.947C20.2511 14.8147 20.8682 14.4483 21.3119 13.9107C21.7556 13.373 21.9983 12.6976 21.9983 12.0005C21.9983 11.3034 21.7556 10.628 21.3119 10.0903C20.8682 9.55267 20.2511 9.18625 19.5666 9.054C19.8422 8.59894 19.9918 8.07877 20.0001 7.54684C20.0084 7.0149 19.8751 6.49032 19.6139 6.02687C19.3527 5.56343 18.9729 5.17778 18.5135 4.90948C18.0541 4.64117 17.5316 4.49985 16.9996 4.5C16.9996 3.83696 16.7363 3.20107 16.2674 2.73223C15.7986 2.26339 15.1627 2 14.4996 2C13.8366 2 13.2007 2.26339 12.7319 2.73223C12.263 3.20107 11.9996 3.83696 11.9996 4.5C11.9996 3.83696 11.7363 3.20107 11.2674 2.73223C10.7986 2.26339 10.1627 2 9.49964 2C8.8366 2 8.20072 2.26339 7.73188 2.73223C7.26304 3.20107 6.99964 3.83696 6.99964 4.5C6.46779 4.49996 5.94549 4.6413 5.48625 4.90956C5.027 5.17781 4.64733 5.56334 4.38612 6.02663C4.12492 6.48992 3.99157 7.01432 3.99975 7.54611C4.00792 8.0779 4.15732 8.59796 4.43264 9.053C3.74818 9.18525 3.13112 9.55167 2.6874 10.0893C2.24367 10.627 2.00098 11.3024 2.00098 11.9995C2.00098 12.6966 2.24367 13.372 2.6874 13.9097C3.13112 14.4473 3.74818 14.8137 4.43264 14.946C4.14913 15.4147 3.99939 15.9522 3.99964 16.5Z" stroke="black" stroke-width="1.5" stroke-linecap="round" stroke-linejoin="round"/>
<path d="M7.5 14.5L9.342 8.974C9.38824 8.83609 9.47664 8.7162 9.59471 8.63126C9.71278 8.54632 9.85455 8.50062 10 8.50062C10.1455 8.50062 10.2872 8.54632 10.4053 8.63126C10.5234 8.7162 10.6118 8.83609 10.658 8.974L12.5 14.5M15.5 8.5V14.5M8.5 12.5H11.5" stroke="black" stroke-width="1.5" stroke-linecap="round" stroke-linejoin="round"/>
</svg>
