<svg width="24" height="24" viewBox="0 0 24 24" fill="none" xmlns="http://www.w3.org/2000/svg">
<path d="M16.0608 2.45383C16.342 2.73512 16.5 3.11658 16.5 3.51433C16.5 3.91207 16.342 4.29354 16.0608 4.57483L8.63582 11.9998L16.0608 19.4248C16.3341 19.7077 16.4852 20.0866 16.4818 20.4799C16.4784 20.8732 16.3207 21.2494 16.0425 21.5276C15.7644 21.8057 15.3882 21.9634 14.9949 21.9668C14.6016 21.9703 14.2227 21.8191 13.9398 21.5458L5.45432 13.0603C5.17311 12.779 5.01514 12.3976 5.01514 11.9998C5.01514 11.6021 5.17311 11.2206 5.45432 10.9393L13.9398 2.45383C14.2211 2.17262 14.6026 2.01465 15.0003 2.01465C15.3981 2.01465 15.7795 2.17262 16.0608 2.45383Z" fill="#FFFFFF"/>
</svg>
