<svg width="24" height="24" viewBox="0 0 24 24" fill="none" xmlns="http://www.w3.org/2000/svg">
<path d="M21.5462 16.0603C21.2649 16.3415 20.8834 16.4995 20.4857 16.4995C20.0879 16.4995 19.7065 16.3415 19.4252 16.0603L12.0002 8.63533L4.57517 16.0603C4.29227 16.3336 3.91336 16.4848 3.52007 16.4813C3.12677 16.4779 2.75056 16.3202 2.47244 16.0421C2.19433 15.7639 2.03658 15.3877 2.03316 14.9944C2.02974 14.6011 2.18093 14.2222 2.45417 13.9393L10.9397 5.45383C11.221 5.17263 11.6024 5.01465 12.0002 5.01465C12.3979 5.01465 12.7794 5.17263 13.0607 5.45383L21.5462 13.9393C21.8274 14.2206 21.9854 14.6021 21.9854 14.9998C21.9854 15.3976 21.8274 15.779 21.5462 16.0603Z" fill="black"/>
</svg>
