<svg width="24" height="24" viewBox="0 0 24 24" fill="none" xmlns="http://www.w3.org/2000/svg">
<path d="M7.93918 21.5462C7.65797 21.2649 7.5 20.8834 7.5 20.4857C7.5 20.0879 7.65797 19.7065 7.93918 19.4252L15.3642 12.0002L7.93918 4.57517C7.66594 4.29227 7.51475 3.91336 7.51817 3.52007C7.52159 3.12677 7.67934 2.75056 7.95745 2.47244C8.23556 2.19433 8.61178 2.03658 9.00508 2.03316C9.39837 2.02974 9.77728 2.18093 10.0602 2.45417L18.5457 10.9397C18.8269 11.221 18.9849 11.6024 18.9849 12.0002C18.9849 12.3979 18.8269 12.7794 18.5457 13.0607L10.0602 21.5462C9.77889 21.8274 9.39743 21.9854 8.99968 21.9854C8.60193 21.9854 8.22047 21.8274 7.93918 21.5462Z" fill="#00838c"/>
</svg>
