<svg xmlns="http://www.w3.org/2000/svg" xmlns:xlink="http://www.w3.org/1999/xlink" fill="none" version="1.1" width="14" height="14" viewBox="0 0 14 14"><defs><clipPath id="master_svg0_6_3609"><rect x="0" y="14" width="14" height="14" rx="0"/></clipPath></defs><g transform="matrix(0,-1,1,0,-14,14)" clip-path="url(#master_svg0_6_3609)"><g><path d="M1.431499803817749,18.631374920166017C1.595586803817749,18.467338020166014,1.8181058038177489,18.375186920166016,2.050124803817749,18.375186920166016C2.282141803817749,18.375186920166016,2.504661803817749,18.467338020166014,2.668751803817749,18.631374920166017C2.668751803817749,18.631374920166017,7.000001803817749,22.962626920166016,7.000001803817749,22.962626920166016C7.000001803817749,22.962626920166016,11.33121180381775,18.631374920166017,11.33121180381775,18.631374920166017C11.496311803817749,18.471986920166017,11.717311803817749,18.383791430166017,11.946711803817749,18.385785020166015C12.176111803817749,18.387778620166017,12.395611803817749,18.479801920166015,12.55781180381775,18.642033920166014C12.72011180381775,18.804265920166017,12.812111803817748,19.023726920166016,12.814111803817749,19.253148920166016C12.81611180381775,19.482566920166015,12.727911803817749,19.703596920166017,12.56851180381775,19.868626920166015C12.56851180381775,19.868626920166015,7.618621803817749,24.818496920166016,7.618621803817749,24.818496920166016C7.454541803817749,24.982536920166016,7.232021803817749,25.074686920166016,7.000001803817749,25.074686920166016C6.767981803817749,25.074686920166016,6.545461803817749,24.982536920166016,6.381371803817749,24.818496920166016C6.381371803817749,24.818496920166016,1.431499803817749,19.868626920166015,1.431499803817749,19.868626920166015C1.2674628038177491,19.704536920166017,1.175311803817749,19.482016920166014,1.175311803817749,19.249999920166015C1.175311803817749,19.017980920166014,1.2674628038177491,18.795461920166016,1.431499803817749,18.631374920166017Z" fill="#00838C" fill-opacity="1"/></g></g></svg>