<svg width="337" height="69" viewBox="0 0 337 69" fill="none" xmlns="http://www.w3.org/2000/svg">
<path d="M314.102 2.82812C317.787 2.90039 321.075 4.05664 323.966 6.29688C326.856 8.53711 329.169 11.2109 330.903 14.3184C332.71 17.4258 334.047 20.7139 334.914 24.1826C335.781 27.6514 336.215 31.1924 336.215 34.8057C336.215 39.5752 335.456 44.2725 333.938 48.8975C332.493 53.4502 330.072 57.4971 326.676 61.0381C323.352 64.5791 319.16 66.4941 314.102 66.7832H276.271C271.212 66.5664 266.984 64.6875 263.588 61.1465C260.191 57.6055 257.771 53.5225 256.325 48.8975C254.952 44.2725 254.266 39.5752 254.266 34.8057C254.266 30.0361 254.988 25.375 256.434 20.8223C257.879 16.1973 260.264 12.1143 263.588 8.57324C266.984 4.95996 271.212 3.04492 276.271 2.82812H278.33H312.042H314.102ZM310.416 52.2578C313.162 52.1133 315.438 51.1016 317.245 49.2227C319.124 47.2715 320.461 45.0312 321.256 42.502C322.051 39.9727 322.448 37.4072 322.448 34.8057C322.448 32.2041 322.015 29.6748 321.147 27.2178C320.353 24.6885 319.052 22.4482 317.245 20.4971C315.438 18.5459 313.162 17.498 310.416 17.3535H279.631C276.885 17.498 274.608 18.5459 272.802 20.4971C270.995 22.4482 269.658 24.6885 268.791 27.2178C267.996 29.6748 267.599 32.2041 267.599 34.8057C267.599 37.4072 267.996 39.9727 268.791 42.502C269.586 45.0312 270.887 47.2715 272.693 49.2227C274.572 51.1016 276.885 52.1133 279.631 52.2578H310.416Z" fill="#00838C"/>
<path d="M182.288 61.2549C181.854 65.5908 179.47 67.9395 175.134 68.3008C173.11 68.3008 171.34 67.6504 169.822 66.3496C168.377 64.9766 167.654 63.2783 167.654 61.2549V9.87402C167.727 7.85059 168.485 6.18848 169.931 4.8877C171.376 3.51465 173.11 2.82812 175.134 2.82812H180.445H193.778H220.553C220.986 2.82812 221.42 2.86426 221.854 2.93652H222.504C227.562 3.08105 231.718 4.2373 234.97 6.40527C238.222 8.57324 240.57 11.0664 242.016 13.8848C243.461 16.6309 244.184 19.4131 244.184 22.2314C244.184 25.1221 243.461 27.9766 242.016 30.7949C240.643 33.541 238.294 35.998 234.97 38.166C231.718 40.334 227.562 41.4902 222.504 41.6348H203.426C204.004 45.248 205.196 47.9219 207.003 49.6562C208.737 51.3906 210.941 52.2578 213.615 52.2578H237.029C239.053 52.3301 240.715 53.0889 242.016 54.5342C243.389 55.9795 244.075 57.7139 244.075 59.7373C244.003 61.6885 243.28 63.3506 241.907 64.7236C240.606 66.0244 238.98 66.7109 237.029 66.7832H211.664C206.316 66.8555 201.475 64.7598 197.139 60.4961C192.803 56.2324 190.165 51.1738 189.226 45.3203C187.925 38.8164 187.274 35.167 187.274 34.3721C187.274 32.3486 187.961 30.6504 189.334 29.2773C190.779 27.832 192.514 27.1094 194.537 27.1094H223.154C224.527 27.0371 225.647 26.748 226.515 26.2422C227.454 25.6641 228.141 25.0498 228.574 24.3994C229.008 23.6768 229.225 22.9541 229.225 22.2314C229.225 21.5088 229.008 20.8223 228.574 20.1719C228.141 19.4492 227.454 18.835 226.515 18.3291C225.647 17.751 224.527 17.4258 223.154 17.3535H193.778H185.106C183.228 17.4258 182.288 18.3652 182.288 20.1719V61.2549Z" fill="#00838C"/>
<path d="M110.744 49.9814C110.744 47.958 111.431 46.2598 112.804 44.8867C114.249 43.4414 115.984 42.7188 118.007 42.7188H134.592L131.774 34.6973C130.617 31.7344 129.461 28.9521 128.305 26.3506C127.221 23.6768 125.956 21.2559 124.511 19.0879C123.21 16.9199 121.729 15.7637 120.067 15.6191C118.332 15.7637 116.779 16.9199 115.405 19.0879C114.032 21.2559 112.768 23.6768 111.612 26.3506C110.528 28.9521 109.407 31.7344 108.251 34.6973L97.9533 62.8809C97.2307 64.3984 96.2912 65.6631 95.135 66.6748C94.051 67.6143 92.3889 68.084 90.1486 68.084C88.0529 68.084 86.3186 67.3613 84.9455 65.916C83.6447 64.4707 83.0666 62.7363 83.2111 60.7129C83.2834 59.7734 83.5002 58.9062 83.8615 58.1113L95.7854 27.3262C99.1096 19.2324 102.434 12.6924 105.758 7.70605C109.01 2.79199 113.779 0.298828 120.067 0.226562C126.281 0.298828 131.015 2.79199 134.267 7.70605C137.591 12.5479 140.915 19.0879 144.239 27.3262L156.163 58.1113C156.525 58.9062 156.741 59.7734 156.814 60.7129C156.958 62.7363 156.344 64.4707 154.971 65.916C153.67 67.3613 151.972 68.084 149.876 68.084C147.491 68.084 145.721 67.6143 144.565 66.6748C143.481 65.6631 142.577 64.3984 141.855 62.8809L139.795 57.2441H118.007C115.984 57.2441 114.285 56.5215 112.912 55.0762C111.467 53.7031 110.744 52.0049 110.744 49.9814Z" fill="#00838C"/>
<path d="M73.1309 38.166C74.5039 41.0566 75.1904 43.9834 75.1904 46.9463C75.1904 49.8369 74.4678 52.7275 73.0225 55.6182C71.5771 58.4365 69.2285 60.9658 65.9766 63.2061C62.7246 65.374 58.5693 66.458 53.5107 66.458H52.8604C52.4268 66.5303 51.9932 66.5664 51.5596 66.5664H7.9834C6.03223 66.4941 4.37012 65.8076 2.99707 64.5068C1.69629 63.1338 1.00977 61.4717 0.9375 59.5205V9.87402C1.00977 7.92285 1.69629 6.29688 2.99707 4.99609C4.37012 3.62305 6.03223 2.90039 7.9834 2.82812H45.2725C45.7061 2.82812 46.1396 2.86426 46.5732 2.93652H47.2236C52.2822 3.08105 56.4375 4.2373 59.6895 6.40527C62.9414 8.57324 65.29 11.0664 66.7354 13.8848C68.1807 16.6309 68.9033 19.4131 68.9033 22.2314C68.9033 25.1221 68.2168 27.9404 66.8438 30.6865C66.7715 30.8311 66.6992 30.9395 66.627 31.0117C69.5898 33.1074 71.7578 35.4922 73.1309 38.166ZM54.1611 52.041C55.5342 52.1133 56.6543 51.8604 57.5215 51.2822C58.4609 50.7041 59.1475 50.0537 59.5811 49.3311C60.0146 48.5361 60.2314 47.7412 60.2314 46.9463C60.2314 46.4404 60.0146 45.7539 59.5811 44.8867C59.1475 43.9473 58.4609 43.1885 57.5215 42.6104C56.6543 42.0322 55.5342 41.707 54.1611 41.6348H47.2236H15.5713V49.1143C15.5713 51.0654 16.583 52.041 18.6064 52.041H19.4736H54.1611ZM51.3428 26.1338C52.21 25.6279 52.8604 25.0498 53.2939 24.3994C53.7275 23.6768 53.9443 22.9541 53.9443 22.2314C53.9443 21.5088 53.7275 20.8223 53.2939 20.1719C52.8604 19.4492 52.1738 18.835 51.2344 18.3291C50.3672 17.751 49.2471 17.4258 47.874 17.3535H18.6064C16.583 17.3535 15.5713 18.3291 15.5713 20.2803V27.1094H47.874C49.2471 27.0371 50.4033 26.7119 51.3428 26.1338Z" fill="#00838C"/>
</svg>
