<svg width="24" height="24" viewBox="0 0 24 24" fill="none" xmlns="http://www.w3.org/2000/svg">
<path d="M17.6569 14.8287L14.8284 12.0002L17.6569 9.1718C18.0319 8.79673 18.2426 8.28802 18.2426 7.75759C18.2426 7.22716 18.0319 6.71845 17.6569 6.34338C17.2818 5.9683 16.7731 5.75759 16.2426 5.75759C15.7122 5.75759 15.2035 5.9683 14.8284 6.34338L12.0502 9.22201L9.17157 6.34338C8.7965 5.9683 8.28779 5.75759 7.75736 5.75759C7.22693 5.75759 6.71822 5.9683 6.34315 6.34338C5.96807 6.71845 5.75736 7.22716 5.75736 7.75759C5.75736 8.28802 5.96807 8.79673 6.34315 9.1718L9.27198 12.0002L6.34315 14.8287C5.96807 15.2037 5.75736 15.7124 5.75736 16.2429C5.75736 16.7733 5.96807 17.282 6.34315 17.6571C6.71822 18.0322 7.22693 18.2429 7.75736 18.2429C8.28779 18.2429 8.7965 18.0322 9.17157 17.6571L12.0502 14.7785L14.8284 17.6571C15.2035 18.0322 15.7122 18.2429 16.2426 18.2429C16.7731 18.2429 17.2818 18.0322 17.6569 17.6571C18.0319 17.282 18.2426 16.7733 18.2426 16.2429C18.2426 15.7124 18.0319 15.2037 17.6569 14.8287Z" fill="black"/>
</svg>
