<svg width="24" height="24" viewBox="0 0 24 24" fill="none" xmlns="http://www.w3.org/2000/svg">
<path d="M19 5C19.7652 4.99996 20.5015 5.25578 21.0583 5.71512C21.615 6.17446 21.9501 6.80259 21.995 7.471L22 7.625V9.21488C21.9977 9.4512 21.925 9.6829 21.7888 9.88703C21.6527 10.0912 21.458 10.2606 21.224 10.3786L21.117 10.4294C20.7935 10.5683 20.5189 10.7812 20.3222 11.0455C20.1256 11.3097 20.0142 11.6156 19.9998 11.9307C19.9855 12.2458 20.0687 12.5584 20.2407 12.8356C20.4127 13.1127 20.6671 13.344 20.977 13.505L21.117 13.5706C21.55 13.7579 21.937 14.1446 21.993 14.6556L22 14.7851V16.375C22 17.0446 21.7077 17.6888 21.1827 18.176C20.6578 18.6631 19.9399 18.9563 19.176 18.9956L19 19H5C4.23479 19 3.49849 18.7442 2.94174 18.2849C2.38499 17.8255 2.04989 17.1974 2.005 16.529L2 16.375V14.7851C2 14.2549 2.352 13.8419 2.776 13.6214L2.883 13.5706C3.20653 13.4317 3.48114 13.2188 3.67779 12.9545C3.87445 12.6903 3.98583 12.3844 4.00017 12.0693C4.01452 11.7542 3.93129 11.4416 3.75928 11.1644C3.58727 10.8873 3.33288 10.656 3.023 10.495L2.883 10.4294C2.45 10.2421 2.063 9.85538 2.007 9.34438L2 9.21575V7.625C1.99996 6.95544 2.29233 6.31117 2.81728 5.82402C3.34224 5.33687 4.06011 5.04366 4.824 5.00438L5 5H19ZM10 9.375C9.73478 9.375 9.48043 9.46719 9.29289 9.63128C9.10536 9.79538 9 10.0179 9 10.25V13.75C9 13.9821 9.10536 14.2046 9.29289 14.3687C9.48043 14.5328 9.73478 14.625 10 14.625C10.2652 14.625 10.5196 14.5328 10.7071 14.3687C10.8946 14.2046 11 13.9821 11 13.75V10.25C11 10.0179 10.8946 9.79538 10.7071 9.63128C10.5196 9.46719 10.2652 9.375 10 9.375Z" fill="#FFFFFF"/>
</svg>
