<svg width="406" height="406" viewBox="0 0 406 406" fill="none" xmlns="http://www.w3.org/2000/svg">
<path fill-rule="evenodd" clip-rule="evenodd" d="M203 406C90.8862 406 0 315.114 0 203C0 90.8862 90.8862 0 203 0C315.114 0 406 90.8862 406 203C406 315.114 315.114 406 203 406ZM203 23C103.589 23 23 103.589 23 203C23 302.411 103.589 383 203 383C302.411 383 383 302.411 383 203C383 103.589 302.411 23 203 23Z" fill="white"/>
<path fill-rule="evenodd" clip-rule="evenodd" d="M203 406C90.8862 406 0 315.114 0 203C0 90.8862 90.8862 0 203 0C315.114 0 406 90.8862 406 203C406 315.114 315.114 406 203 406ZM203 23C103.589 23 23 103.589 23 203C23 302.411 103.589 383 203 383C302.411 383 383 302.411 383 203C383 103.589 302.411 23 203 23Z" fill="url(#paint0_linear_651_888)" fill-opacity="0.2"/>
<path d="M203.205 148.701C205.415 153.339 206.52 158.035 206.52 162.789C206.52 167.427 205.357 172.065 203.03 176.703C200.704 181.225 196.924 185.283 191.689 188.878C186.455 192.356 179.766 194.096 171.624 194.096H170.577C169.879 194.212 169.181 194.27 168.483 194.27H98.3413C95.2006 194.154 92.5253 193.052 90.3152 190.965C88.2214 188.762 87.1163 186.095 87 182.964V103.305C87.1163 100.175 88.2214 97.5657 90.3152 95.4786C92.5253 93.2755 95.2006 92.116 98.3413 92H158.363C159.061 92 159.759 92.058 160.457 92.1739H161.504C169.646 92.4058 176.335 94.2611 181.569 97.7396C186.804 101.218 190.584 105.219 192.91 109.741C195.237 114.147 196.4 118.611 196.4 123.133C196.4 127.771 195.295 132.293 193.085 136.699C192.969 136.931 192.852 137.105 192.736 137.221C197.505 140.584 200.995 144.41 203.205 148.701ZM172.671 170.963C174.881 171.079 176.684 170.673 178.079 169.746C179.592 168.818 180.697 167.775 181.395 166.615C182.093 165.34 182.442 164.064 182.442 162.789C182.442 161.977 182.093 160.875 181.395 159.484C180.697 157.977 179.592 156.759 178.079 155.832C176.684 154.904 174.881 154.382 172.671 154.266H110.555V166.267C110.555 169.398 112.184 170.963 115.441 170.963H172.671ZM168.134 129.395C169.53 128.583 170.577 127.655 171.275 126.612C171.973 125.452 172.322 124.293 172.322 123.133C172.322 121.974 171.973 120.872 171.275 119.828C170.577 118.669 169.472 117.683 167.96 116.872C166.564 115.944 164.761 115.422 162.551 115.306H115.441C112.184 115.306 110.555 116.872 110.555 120.002V130.96H162.551C164.761 130.844 166.622 130.322 168.134 129.395Z" fill="white"/>
<path d="M203.205 148.701C205.415 153.339 206.52 158.035 206.52 162.789C206.52 167.427 205.357 172.065 203.03 176.703C200.704 181.225 196.924 185.283 191.689 188.878C186.455 192.356 179.766 194.096 171.624 194.096H170.577C169.879 194.212 169.181 194.27 168.483 194.27H98.3413C95.2006 194.154 92.5253 193.052 90.3152 190.965C88.2214 188.762 87.1163 186.095 87 182.964V103.305C87.1163 100.175 88.2214 97.5657 90.3152 95.4786C92.5253 93.2755 95.2006 92.116 98.3413 92H158.363C159.061 92 159.759 92.058 160.457 92.1739H161.504C169.646 92.4058 176.335 94.2611 181.569 97.7396C186.804 101.218 190.584 105.219 192.91 109.741C195.237 114.147 196.4 118.611 196.4 123.133C196.4 127.771 195.295 132.293 193.085 136.699C192.969 136.931 192.852 137.105 192.736 137.221C197.505 140.584 200.995 144.41 203.205 148.701ZM172.671 170.963C174.881 171.079 176.684 170.673 178.079 169.746C179.592 168.818 180.697 167.775 181.395 166.615C182.093 165.34 182.442 164.064 182.442 162.789C182.442 161.977 182.093 160.875 181.395 159.484C180.697 157.977 179.592 156.759 178.079 155.832C176.684 154.904 174.881 154.382 172.671 154.266H110.555V166.267C110.555 169.398 112.184 170.963 115.441 170.963H172.671ZM168.134 129.395C169.53 128.583 170.577 127.655 171.275 126.612C171.973 125.452 172.322 124.293 172.322 123.133C172.322 121.974 171.973 120.872 171.275 119.828C170.577 118.669 169.472 117.683 167.96 116.872C166.564 115.944 164.761 115.422 162.551 115.306H115.441C112.184 115.306 110.555 116.872 110.555 120.002V130.96H162.551C164.761 130.844 166.622 130.322 168.134 129.395Z" fill="url(#paint1_linear_651_888)" fill-opacity="0.2"/>
<path d="M259.336 168.816C259.336 165.692 260.404 163.07 262.539 160.95C264.787 158.719 267.485 157.603 270.632 157.603H296.427L292.043 145.219C290.245 140.644 288.446 136.349 286.648 132.332C284.962 128.204 282.995 124.467 280.747 121.12C278.724 117.773 276.42 115.988 273.835 115.764C271.138 115.988 268.721 117.773 266.586 121.12C264.45 124.467 262.483 128.204 260.685 132.332C258.999 136.349 257.257 140.644 255.459 145.219L239.442 188.731C238.318 191.074 236.857 193.026 235.059 194.588C233.373 196.039 230.788 196.764 227.304 196.764C224.044 196.764 221.347 195.648 219.211 193.417C217.188 191.186 216.289 188.508 216.514 185.384C216.626 183.934 216.963 182.595 217.525 181.367L236.07 133.839C241.241 121.343 246.411 111.246 251.581 103.547C256.639 95.9607 264.057 92.1116 273.835 92C283.501 92.1116 290.863 95.9607 295.921 103.547C301.091 111.023 306.261 121.12 311.431 133.839L329.976 181.367C330.538 182.595 330.876 183.934 330.988 185.384C331.213 188.508 330.257 191.186 328.122 193.417C326.099 195.648 323.457 196.764 320.198 196.764C316.489 196.764 313.735 196.039 311.937 194.588C310.251 193.026 308.846 191.074 307.722 188.731L304.519 180.029H270.632C267.485 180.029 264.844 178.913 262.708 176.681C260.46 174.562 259.336 171.94 259.336 168.816Z" fill="white"/>
<path d="M259.336 168.816C259.336 165.692 260.404 163.07 262.539 160.95C264.787 158.719 267.485 157.603 270.632 157.603H296.427L292.043 145.219C290.245 140.644 288.446 136.349 286.648 132.332C284.962 128.204 282.995 124.467 280.747 121.12C278.724 117.773 276.42 115.988 273.835 115.764C271.138 115.988 268.721 117.773 266.586 121.12C264.45 124.467 262.483 128.204 260.685 132.332C258.999 136.349 257.257 140.644 255.459 145.219L239.442 188.731C238.318 191.074 236.857 193.026 235.059 194.588C233.373 196.039 230.788 196.764 227.304 196.764C224.044 196.764 221.347 195.648 219.211 193.417C217.188 191.186 216.289 188.508 216.514 185.384C216.626 183.934 216.963 182.595 217.525 181.367L236.07 133.839C241.241 121.343 246.411 111.246 251.581 103.547C256.639 95.9607 264.057 92.1116 273.835 92C283.501 92.1116 290.863 95.9607 295.921 103.547C301.091 111.023 306.261 121.12 311.431 133.839L329.976 181.367C330.538 182.595 330.876 183.934 330.988 185.384C331.213 188.508 330.257 191.186 328.122 193.417C326.099 195.648 323.457 196.764 320.198 196.764C316.489 196.764 313.735 196.039 311.937 194.588C310.251 193.026 308.846 191.074 307.722 188.731L304.519 180.029H270.632C267.485 180.029 264.844 178.913 262.708 176.681C260.46 174.562 259.336 171.94 259.336 168.816Z" fill="url(#paint2_linear_651_888)" fill-opacity="0.2"/>
<path d="M303.749 211.73C309.124 211.846 313.919 213.695 318.135 217.277C322.351 220.86 325.724 225.135 328.253 230.104C330.888 235.073 332.838 240.331 334.103 245.878C335.368 251.425 336 257.087 336 262.865C336 270.492 334.893 278.003 332.68 285.399C330.572 292.679 327.041 299.151 322.088 304.813C317.239 310.475 311.126 313.538 303.749 314H248.573C241.196 313.653 235.03 310.649 230.076 304.986C225.123 299.324 221.592 292.795 219.484 285.399C217.481 278.003 216.48 270.492 216.48 262.865C216.48 255.238 217.534 247.785 219.642 240.505C221.75 233.109 225.228 226.58 230.076 220.917C235.03 215.139 241.196 212.077 248.573 211.73H303.749ZM298.373 290.773C302.378 290.542 305.698 288.924 308.333 285.919C311.074 282.799 313.024 279.217 314.183 275.172C315.342 271.128 315.922 267.025 315.922 262.865C315.922 258.705 315.29 254.66 314.025 250.731C312.865 246.687 310.968 243.105 308.333 239.984C305.698 236.864 302.378 235.189 298.373 234.958H253.474C249.469 235.189 246.149 236.864 243.514 239.984C240.879 243.105 238.93 246.687 237.665 250.731C236.505 254.66 235.926 258.705 235.926 262.865C235.926 267.025 236.505 271.128 237.665 275.172C238.824 279.217 240.721 282.799 243.356 285.919C246.097 288.924 249.469 290.542 253.474 290.773H298.373Z" fill="white"/>
<path d="M303.749 211.73C309.124 211.846 313.919 213.695 318.135 217.277C322.351 220.86 325.724 225.135 328.253 230.104C330.888 235.073 332.838 240.331 334.103 245.878C335.368 251.425 336 257.087 336 262.865C336 270.492 334.893 278.003 332.68 285.399C330.572 292.679 327.041 299.151 322.088 304.813C317.239 310.475 311.126 313.538 303.749 314H248.573C241.196 313.653 235.03 310.649 230.076 304.986C225.123 299.324 221.592 292.795 219.484 285.399C217.481 278.003 216.48 270.492 216.48 262.865C216.48 255.238 217.534 247.785 219.642 240.505C221.75 233.109 225.228 226.58 230.076 220.917C235.03 215.139 241.196 212.077 248.573 211.73H303.749ZM298.373 290.773C302.378 290.542 305.698 288.924 308.333 285.919C311.074 282.799 313.024 279.217 314.183 275.172C315.342 271.128 315.922 267.025 315.922 262.865C315.922 258.705 315.29 254.66 314.025 250.731C312.865 246.687 310.968 243.105 308.333 239.984C305.698 236.864 302.378 235.189 298.373 234.958H253.474C249.469 235.189 246.149 236.864 243.514 239.984C240.879 243.105 238.93 246.687 237.665 250.731C236.505 254.66 235.926 258.705 235.926 262.865C235.926 267.025 236.505 271.128 237.665 275.172C238.824 279.217 240.721 282.799 243.356 285.919C246.097 288.924 249.469 290.542 253.474 290.773H298.373Z" fill="url(#paint3_linear_651_888)" fill-opacity="0.2"/>
<path d="M109.854 302.994C109.177 309.767 105.453 313.436 98.6811 314C95.521 314 92.7559 312.984 90.3858 310.952C88.1286 308.808 87 306.155 87 302.994V222.736C87.1129 219.576 88.2979 216.979 90.5551 214.947C92.8124 212.803 95.521 211.73 98.6811 211.73H169.614C170.292 211.73 170.969 211.787 171.646 211.9H172.662C180.562 212.125 187.051 213.932 192.13 217.318C197.209 220.704 200.877 224.599 203.134 229.001C205.391 233.291 206.52 237.636 206.52 242.039C206.52 246.554 205.391 251.013 203.134 255.415C200.99 259.705 197.322 263.542 192.13 266.929C187.051 270.315 180.562 272.121 172.662 272.347H142.866C143.769 277.991 145.631 282.168 148.453 284.877C151.162 287.586 154.604 288.941 158.78 288.941H195.347C198.507 289.053 201.103 290.239 203.134 292.496C205.279 294.754 206.351 297.463 206.351 300.624C206.238 303.671 205.109 306.268 202.965 308.412C200.933 310.444 198.394 311.517 195.347 311.63H155.732C147.381 311.742 139.819 308.469 133.047 301.809C126.276 295.149 122.156 287.247 120.689 278.104C118.658 267.945 117.642 262.244 117.642 261.003C117.642 257.842 118.714 255.189 120.858 253.045C123.116 250.787 125.824 249.658 128.984 249.658H173.677C175.822 249.545 177.571 249.094 178.925 248.304C180.393 247.401 181.465 246.441 182.142 245.425C182.819 244.296 183.158 243.168 183.158 242.039C183.158 240.91 182.819 239.838 182.142 238.822C181.465 237.693 180.393 236.733 178.925 235.943C177.571 235.04 175.822 234.532 173.677 234.419H114.256C111.322 234.532 109.854 236 109.854 238.822V302.994Z" fill="white"/>
<path d="M109.854 302.994C109.177 309.767 105.453 313.436 98.6811 314C95.521 314 92.7559 312.984 90.3858 310.952C88.1286 308.808 87 306.155 87 302.994V222.736C87.1129 219.576 88.2979 216.979 90.5551 214.947C92.8124 212.803 95.521 211.73 98.6811 211.73H169.614C170.292 211.73 170.969 211.787 171.646 211.9H172.662C180.562 212.125 187.051 213.932 192.13 217.318C197.209 220.704 200.877 224.599 203.134 229.001C205.391 233.291 206.52 237.636 206.52 242.039C206.52 246.554 205.391 251.013 203.134 255.415C200.99 259.705 197.322 263.542 192.13 266.929C187.051 270.315 180.562 272.121 172.662 272.347H142.866C143.769 277.991 145.631 282.168 148.453 284.877C151.162 287.586 154.604 288.941 158.78 288.941H195.347C198.507 289.053 201.103 290.239 203.134 292.496C205.279 294.754 206.351 297.463 206.351 300.624C206.238 303.671 205.109 306.268 202.965 308.412C200.933 310.444 198.394 311.517 195.347 311.63H155.732C147.381 311.742 139.819 308.469 133.047 301.809C126.276 295.149 122.156 287.247 120.689 278.104C118.658 267.945 117.642 262.244 117.642 261.003C117.642 257.842 118.714 255.189 120.858 253.045C123.116 250.787 125.824 249.658 128.984 249.658H173.677C175.822 249.545 177.571 249.094 178.925 248.304C180.393 247.401 181.465 246.441 182.142 245.425C182.819 244.296 183.158 243.168 183.158 242.039C183.158 240.91 182.819 239.838 182.142 238.822C181.465 237.693 180.393 236.733 178.925 235.943C177.571 235.04 175.822 234.532 173.677 234.419H114.256C111.322 234.532 109.854 236 109.854 238.822V302.994Z" fill="url(#paint4_linear_651_888)" fill-opacity="0.2"/>
<defs>
<linearGradient id="paint0_linear_651_888" x1="66" y1="-31" x2="372.5" y2="452" gradientUnits="userSpaceOnUse">
<stop stop-color="#EDE54C"/>
<stop offset="1" stop-color="#F8F8F8"/>
</linearGradient>
<linearGradient id="paint1_linear_651_888" x1="66" y1="-31" x2="372.5" y2="452" gradientUnits="userSpaceOnUse">
<stop stop-color="#EDE54C"/>
<stop offset="1" stop-color="#F8F8F8"/>
</linearGradient>
<linearGradient id="paint2_linear_651_888" x1="66" y1="-31" x2="372.5" y2="452" gradientUnits="userSpaceOnUse">
<stop stop-color="#EDE54C"/>
<stop offset="1" stop-color="#F8F8F8"/>
</linearGradient>
<linearGradient id="paint3_linear_651_888" x1="66" y1="-31" x2="372.5" y2="452" gradientUnits="userSpaceOnUse">
<stop stop-color="#EDE54C"/>
<stop offset="1" stop-color="#F8F8F8"/>
</linearGradient>
<linearGradient id="paint4_linear_651_888" x1="66" y1="-31" x2="372.5" y2="452" gradientUnits="userSpaceOnUse">
<stop stop-color="#EDE54C"/>
<stop offset="1" stop-color="#F8F8F8"/>
</linearGradient>
</defs>
</svg>
