<svg width="24" height="24" viewBox="0 0 24 24" fill="none" xmlns="http://www.w3.org/2000/svg">
<path d="M21.0306 10.7097C21.3811 9.8518 21.4982 8.91636 21.3701 7.99848C21.242 7.0806 20.8731 6.213 20.3011 5.48383C19.7291 4.75466 18.9742 4.18992 18.1132 3.84698C17.2522 3.50404 16.3158 3.39513 15.3991 3.53131C14.8309 2.79951 14.0793 2.23108 13.2205 1.88373C12.3616 1.53637 11.4261 1.42246 10.509 1.55357C9.59193 1.68469 8.72585 2.05614 7.99873 2.63023C7.27162 3.20431 6.70936 3.96058 6.36905 4.82225C5.45081 4.94794 4.5822 5.31448 3.85149 5.88461C3.12079 6.45474 2.55404 7.20815 2.20883 8.06827C1.86362 8.92839 1.75225 9.86457 1.88605 10.7817C2.01986 11.6988 2.39405 12.5641 2.97062 13.2897C2.68926 13.9792 2.55781 14.7207 2.58499 15.4649C2.61217 16.2091 2.79736 16.939 3.12827 17.6061C3.45918 18.2733 3.92823 18.8624 4.50427 19.3343C5.08032 19.8063 5.75018 20.1503 6.46937 20.3435C6.91515 20.4655 7.37501 20.5285 7.83718 20.531C8.09355 20.5307 8.34954 20.5115 8.60312 20.4738C9.17134 21.2053 9.92299 21.7735 10.7818 22.1207C11.6406 22.4678 12.5759 22.5815 13.4929 22.4503C14.4098 22.3191 15.2757 21.9477 16.0027 21.3736C16.7297 20.7996 17.2919 20.0435 17.6322 19.1819C18.5504 19.0562 19.419 18.6897 20.1497 18.1196C20.8804 17.5494 21.4472 16.796 21.7924 15.9359C22.1376 15.0758 22.249 14.1396 22.1152 13.2225C21.9814 12.3054 21.6072 11.4401 21.0306 10.7144V10.7097ZM17.1428 5.10256C18.0879 5.3552 18.8968 5.96715 19.397 6.80785C19.8972 7.64855 20.0491 8.65144 19.8203 9.60256C19.7313 9.54296 19.6403 9.48636 19.5475 9.43287L15.3756 7.01975C15.2616 6.95392 15.1323 6.91927 15.0006 6.91927C14.869 6.91927 14.7396 6.95392 14.6256 7.01975L10.5006 9.40194V7.66944L14.2975 5.47756C14.7235 5.23015 15.1942 5.06962 15.6826 5.00525C16.171 4.94088 16.6673 4.97396 17.1428 5.10256ZM13.5006 12.866L12.0006 13.7322L10.5006 12.866V11.1335L12.0006 10.2672L13.5006 11.1335V12.866ZM7.50062 6.74975C7.50096 6.01663 7.7162 5.29968 8.1197 4.68759C8.52319 4.07549 9.09726 3.5951 9.77089 3.30581C10.4445 3.01653 11.1882 2.93104 11.9099 3.05993C12.6316 3.18882 13.2997 3.52643 13.8316 4.031C13.7378 4.07881 13.6441 4.12475 13.5503 4.18287L9.37562 6.58756C9.26172 6.65332 9.16711 6.74788 9.10129 6.86175C9.03547 6.97562 9.00075 7.10479 9.00062 7.23631V11.9997L7.50062 11.1335V6.74975ZM3.83124 8.14944C4.30909 7.31607 5.09031 6.69943 6.01187 6.42819C6.00483 6.53523 6.00108 6.64247 6.00062 6.74975V11.5666C6.00059 11.6983 6.03523 11.8277 6.10106 11.9417C6.16688 12.0558 6.26158 12.1505 6.37562 12.2163L10.5006 14.5976L9.00062 15.4685L5.20374 13.2719C4.34247 12.7746 3.71401 11.9556 3.45662 10.9949C3.19923 10.0343 3.33398 9.01073 3.83124 8.14944ZM6.85843 18.8969C5.91335 18.6443 5.10442 18.0323 4.6042 17.1916C4.10398 16.3509 3.95209 15.3481 4.18093 14.3969C4.26999 14.456 4.35999 14.5132 4.45374 14.5666L8.62562 16.9797C8.73963 17.0456 8.86896 17.0802 9.00062 17.0802C9.13227 17.0802 9.2616 17.0456 9.37562 16.9797L13.5006 14.5976V16.3301L9.70374 18.5219C9.27778 18.7694 8.807 18.9299 8.31862 18.9942C7.83024 19.0586 7.33395 19.0255 6.85843 18.8969ZM16.5006 17.2497C16.501 17.9831 16.2864 18.7004 15.8833 19.3131C15.4802 19.9257 14.9063 20.4067 14.2327 20.6965C13.559 20.9863 12.8152 21.0723 12.0932 20.9437C11.3713 20.8151 10.7028 20.4777 10.1706 19.9732C10.2644 19.9254 10.3581 19.8747 10.4519 19.8204L14.6256 17.4119C14.7395 17.3462 14.8341 17.2516 14.8999 17.1377C14.9658 17.0239 15.0005 16.8947 15.0006 16.7632V11.9997L16.5006 12.866V17.2497ZM20.17 15.8501C19.6921 16.6834 18.9109 17.3001 17.9894 17.5713C17.9959 17.4644 18.0006 17.3576 18.0006 17.2497V12.4329C18.0006 12.3012 17.966 12.1718 17.9002 12.0578C17.8343 11.9437 17.7397 11.849 17.6256 11.7832L13.5006 9.40194L15.0006 8.53569L18.7975 10.7276C19.6588 11.2249 20.2872 12.0439 20.5446 13.0046C20.802 13.9652 20.6673 14.9888 20.17 15.8501Z" fill="currentColor"/>
</svg>
