<svg width="24" height="24" viewBox="0 0 24 24" fill="none" xmlns="http://www.w3.org/2000/svg">
<path d="M13.75 10.3063C13.75 9.7625 14.0375 9.26875 14.3719 8.8375C14.7656 8.32812 15 7.69062 15 7C15 5.34375 13.6562 4 12 4C10.3438 4 9 5.34375 9 7C9 7.69062 9.23438 8.32812 9.62813 8.8375C9.9625 9.26875 10.25 9.7625 10.25 10.3063C10.25 11.2406 9.49062 12 8.55625 12H7.5C5.56562 12 4 13.5656 4 15.5C4 16.1531 4.41875 16.7094 5 16.9156V18.5C5 19.3281 5.67188 20 6.5 20H17.5C18.3281 20 19 19.3281 19 18.5V16.9156C19.5813 16.7094 20 16.1531 20 15.5C20 13.5656 18.4344 12 16.5 12H15.4438C14.5094 12 13.75 11.2406 13.75 10.3063ZM17 17V18H7V17H17Z" fill="black"/>
</svg>
