<svg width="20" height="20" viewBox="0 0 20 20" fill="none" xmlns="http://www.w3.org/2000/svg">
<path d="M11.459 8.5887C11.459 8.13558 11.6986 7.72412 11.9772 7.36475C12.3053 6.94027 12.5007 6.40902 12.5007 5.8335C12.5007 4.45329 11.3809 3.3335 10.0007 3.3335C8.62044 3.3335 7.50065 4.45329 7.50065 5.8335C7.50065 6.40902 7.69596 6.94027 8.02409 7.36475C8.30273 7.72412 8.54232 8.13558 8.54232 8.5887C8.54232 9.36735 7.90951 10.0002 7.13086 10.0002H6.25065C4.63867 10.0002 3.33398 11.3049 3.33398 12.9168C3.33398 13.4611 3.68294 13.9246 4.16732 14.0965V15.4168C4.16732 16.1069 4.72721 16.6668 5.41732 16.6668H14.584C15.2741 16.6668 15.834 16.1069 15.834 15.4168V14.0965C16.3184 13.9246 16.6673 13.4611 16.6673 12.9168C16.6673 11.3049 15.3626 10.0002 13.7507 10.0002H12.8704C12.0918 10.0002 11.459 9.36735 11.459 8.5887ZM14.1673 14.1668V15.0002H5.83398V14.1668H14.1673Z" fill="#222222"/>
</svg>
