<svg width="20" height="20" viewBox="0 0 20 20" fill="none" xmlns="http://www.w3.org/2000/svg">
<path d="M5.5 14.2343L3.1375 16.5444C3.0125 16.6667 2.875 16.6972 2.725 16.6361C2.575 16.575 2.5 16.4589 2.5 16.2877V3.96678C2.5 3.56342 2.647 3.21823 2.941 2.93123C3.235 2.64423 3.588 2.50049 4 2.5H16C16.4125 2.5 16.7657 2.64374 17.0597 2.93123C17.3537 3.21872 17.5005 3.56391 17.5 3.96678V12.7675C17.5 13.1708 17.3532 13.5163 17.0597 13.8038C16.7662 14.0912 16.413 14.2347 16 14.2343H5.5ZM10 10.1823L11.425 11.0257C11.5625 11.1112 11.7 11.1083 11.8375 11.0169C11.975 10.9254 12.025 10.8 11.9875 10.6406L11.6125 9.04551L12.8875 7.96376C13.0125 7.85375 13.05 7.72248 13 7.56993C12.95 7.41739 12.8375 7.33476 12.6625 7.32205L10.9937 7.1937L10.3375 5.69025C10.275 5.54357 10.1625 5.47023 10 5.47023C9.8375 5.47023 9.725 5.54357 9.6625 5.69025L9.00625 7.1937L7.3375 7.32205C7.1625 7.33427 7.05 7.4169 7 7.56993C6.95 7.72297 6.9875 7.85424 7.1125 7.96376L8.3875 9.04551L8.0125 10.6406C7.975 10.7995 8.025 10.925 8.1625 11.0169C8.3 11.1088 8.4375 11.1117 8.575 11.0257L10 10.1823Z" fill="#222222"/>
</svg>
