<svg width="24" height="24" viewBox="0 0 24 24" fill="none" xmlns="http://www.w3.org/2000/svg">
<path d="M8.72727 6.55556H11.1818V17.4444H8.72727V19H15.2727V17.4444H12.8182V6.55556H15.2727V5H8.72727V6.55556ZM3.81818 8.11111C3.60119 8.11111 3.39308 8.19306 3.23964 8.33892C3.0862 8.48478 3 8.68261 3 8.88889V15.1111C3 15.3174 3.0862 15.5152 3.23964 15.6611C3.39308 15.8069 3.60119 15.8889 3.81818 15.8889H8.72727V14.3333H4.63636V9.66667H8.72727V8.11111H3.81818ZM15.2727 9.66667H19.3636V14.3333H15.2727V15.8889H20.1818C20.3988 15.8889 20.6069 15.8069 20.7604 15.6611C20.9138 15.5152 21 15.3174 21 15.1111V8.88889C21 8.68261 20.9138 8.48478 20.7604 8.33892C20.6069 8.19306 20.3988 8.11111 20.1818 8.11111H15.2727V9.66667Z" fill="#999999"/>
</svg>
